<svg xmlns="http://www.w3.org/2000/svg" xmlns:xlink="http://www.w3.org/1999/xlink" width="1000" height="64" viewBox="0 0 1000 64" role="img" aria-label="stack"><rect x="0.0" y="0" width="64" height="64" rx="16" fill="#333333"/><svg x="12.0" y="12.0" width="40" height="40" viewBox="0 0 512 512" preserveAspectRatio="xMidYMid meet" fill="none" overflow="visible"><rect width="512" height="512" fill="#3178c6" rx="50"/><rect width="512" height="512" fill="#3178c6" rx="50"/><path fill="#fff" fill-rule="evenodd" d="M316.939 407.424v50.061q12.207 6.258 28.875 9.386c16.668 3.128 22.823 3.129 35.135 3.129q17.998 0 34.196-3.442 16.199-3.441 28.406-11.342 12.207-7.9 19.328-20.65C470 421.816 470 415.559 470 403.044q0-13.61-4.069-23.857c-4.069-10.247-6.625-12.906-11.738-18.225q-7.668-7.979-18.389-14.315c-10.721-6.336-15.207-8.213-24.18-11.967q-9.86-4.068-17.685-7.9-7.825-3.834-13.303-7.822-5.478-3.99-8.451-8.448t-2.974-10.091q0-5.162 2.661-9.308c2.661-4.146 4.278-5.136 7.512-7.118q4.852-2.972 11.894-4.615 7.043-1.642 15.651-1.642 6.26 0 13.224.938 6.964.94 14.008 2.894a97.5 97.5 0 0 1 13.694 4.928q6.651 2.973 12.285 6.884v-46.776q-11.424-4.38-24.962-6.492C421.64 238 415.797 238 404.112 238q-17.842 0-33.805 3.833c-15.963 3.833-20.006 6.544-28.093 11.967q-12.129 8.136-19.171 20.729Q316 287.122 316 304.643q0 22.371 12.912 38.172 12.91 15.8 39.204 26.751 10.33 4.224 19.25 8.291c8.92 4.067 11.086 5.528 15.415 8.448q6.495 4.38 10.252 9.543 3.756 5.161 3.756 11.733 0 4.85-2.348 8.995c-2.348 4.145-3.939 5.162-7.121 7.196s-7.147 3.624-11.894 4.771q-7.121 1.721-16.668 1.721-16.276 0-32.24-5.71-15.963-5.709-29.579-17.13M232.78 284.082H297V243H118v41.082h63.906V467h50.874z" clip-rule="evenodd"/></svg><rect x="78.0" y="0" width="64" height="64" rx="16" fill="#333333"/><svg x="90.0" y="12.0" width="40" height="40" viewBox="0 0 630 630" preserveAspectRatio="xMidYMid meet" overflow="visible"><path fill="#f7df1e" d="M0 0h630v630H0z"/><path d="M423.2 492.19c12.69 20.72 29.2 35.95 58.4 35.95 24.53 0 40.2-12.26 40.2-29.2 0-20.3-16.1-27.49-43.1-39.3l-14.8-6.35c-42.72-18.2-71.1-41-71.1-89.2 0-44.4 33.83-78.2 86.7-78.2 37.64 0 64.7 13.1 84.2 47.4l-46.1 29.6c-10.15-18.2-21.1-25.37-38.1-25.37-17.34 0-28.33 11-28.33 25.37 0 17.76 11 24.95 36.4 35.95l14.8 6.34c50.3 21.57 78.7 43.56 78.7 93 0 53.3-41.87 82.5-98.1 82.5-54.98 0-90.5-26.2-107.88-60.54zm-209.13 5.13c9.3 16.5 17.76 30.45 38.1 30.45 19.45 0 31.72-7.61 31.72-37.2v-201.3h59.2v202.1c0 61.3-35.94 89.2-88.4 89.2-47.4 0-74.85-24.53-88.81-54.075z"/></svg><rect x="156.0" y="0" width="64" height="64" rx="16" fill="#333333"/><svg x="168.0" y="12.0" width="40" height="40" viewBox="0 0 512 512" preserveAspectRatio="xMidYMid meet" overflow="visible"><linearGradient id="n2_a" x1="47.667" x2="544.303" y1="363.376" y2="-63.912" gradientTransform="matrix(.5625 0 0 -.568 -36.442 220.966)" gradientUnits="userSpaceOnUse"><stop offset="0" style="stop-color:#5a9fd4"/><stop offset="1" style="stop-color:#306998"/></linearGradient><path d="M253 0c-20.9.1-40.8 1.9-58.4 5-51.7 9.1-61.1 28.2-61.1 63.5V115h122.1v15.5H87.7c-35.5 0-66.6 21.3-76.3 61.9C.2 239-.3 268 11.4 316.6c8.7 36.2 29.4 61.9 64.9 61.9h42v-55.8c0-40.3 34.9-75.9 76.3-75.9h122c34 0 61.1-28 61.1-62.1V68.5c0-33.1-27.9-58-61.1-63.5-21-3.5-42.7-5.1-63.6-5m-66.1 37.4c12.6 0 22.9 10.5 22.9 23.3s-10.3 23.2-22.9 23.2C174.3 84 164 73.6 164 60.8c0-12.9 10.3-23.4 22.9-23.4" style="fill:url(#n2_a)"/><linearGradient id="n2_b" x1="736.305" x2="558.957" y1="-322.524" y2="-71.607" gradientTransform="matrix(.5625 0 0 -.568 -36.442 220.966)" gradientUnits="userSpaceOnUse"><stop offset="0" style="stop-color:#ffd43b"/><stop offset="1" style="stop-color:#ffe873"/></linearGradient><path d="M392.9 130.6v54.2c0 42.1-35.7 77.4-76.3 77.4h-122c-33.4 0-61.1 28.6-61.1 62.1v116.3c0 33.1 28.8 52.6 61.1 62.1 38.7 11.4 75.7 13.4 122 0 30.8-8.9 61.1-26.8 61.1-62.1V394h-122v-15.5h183.1c35.5 0 48.7-24.8 61.1-61.9 12.8-38.3 12.2-75.1 0-124.1-8.8-35.3-25.5-61.9-61.1-61.9zm-68.6 294.5c12.7 0 22.9 10.4 22.9 23.2 0 12.9-10.3 23.3-22.9 23.3s-22.9-10.5-22.9-23.3 10.3-23.2 22.9-23.2" style="fill:url(#n2_b)"/></svg><rect x="234.0" y="0" width="64" height="64" rx="16" fill="#333333"/><svg x="246.0" y="12.0" width="40" height="40" viewBox="74.6 0 362.8 512" preserveAspectRatio="xMidYMid meet" overflow="visible"><path fill="#fff" d="M108.4 0h23v22.8h21.2V0h23v69h-23V46h-21v23h-23.2M206 23h-20.3V0h63.7v23H229v46h-23m53.5-69h24.1l14.8 24.3L313.2 0h24.1v69h-23V34.8l-16.1 24.8-16.1-24.8V69h-22.6m89.2-69h23v46.2h32.6V69h-55.6"/><path fill="#e44d26" d="m107.6 471-33-370.4h362.8l-33 370.2L255.7 512"/><path fill="#f16529" d="M256 480.5V131h148.3L376 447"/><path fill="#ebebeb" d="M142 176.3h114v45.4h-64.2l4.2 46.5h60v45.3H154.4m2 22.8H202l3.2 36.3 50.8 13.6v47.4l-93.2-26"/><path fill="#fff" d="M369.6 176.3H255.8v45.4h109.6m-4.1 46.5H255.8v45.4h56l-5.3 59-50.7 13.6v47.2l93-25.8"/></svg><rect x="312.0" y="0" width="64" height="64" rx="16" fill="#333333"/><svg x="324.0" y="12.0" width="40" height="40" viewBox="0 0 362.734 512" preserveAspectRatio="xMidYMid meet" overflow="visible"><path d="m437.367 100.62-33.046 370.199L255.778 512l-148.134-41.123L74.633 100.62z" style="fill:#264de4" transform="translate(-74.633)"/><path d="m376.03 447.246 28.24-316.352H256v349.629z" style="fill:#2965f1" transform="translate(-74.633)"/><path d="m150.31 268.217 4.07 45.41H256v-45.41zM256 176.305H142.132l4.128 45.411H256zm0 257.094v-47.246l-.199.053-50.574-13.656-3.233-36.217h-45.585l6.362 71.301 93.02 25.823z" style="fill:#ebebeb" transform="translate(-74.633)"/><path fill="#fff" d="M85.367 0h55v23h-32v23h32v23h-55zm66 0h55v20h-32v4h32v46h-55V49h32v-4h-32zm66 0h55v20h-32v4h32v46h-55V49h32v-4h-32z"/><path d="m311.761 313.627-5.271 58.894-50.647 13.67v47.244l93.094-25.801.683-7.672 10.671-119.551 1.108-12.194 8.198-91.912H255.843v45.411h63.988l-4.132 46.501h-59.856v45.41z" style="fill:#fff" transform="translate(-74.633)"/></svg><rect x="390.0" y="0" width="64" height="64" rx="16" fill="#333333"/><svg x="402.0" y="12.0" width="40" height="40" viewBox="0 0 54 32.4" preserveAspectRatio="xMidYMid meet" fill="none" overflow="visible"><g clip-path="url(#n5_prefix__clip0)"><path fill="#38bdf8" fill-rule="evenodd" d="M27 0c-7.2 0-11.7 3.6-13.5 10.8 2.7-3.6 5.85-4.95 9.45-4.05 2.054.513 3.522 2.004 5.147 3.653C30.744 13.09 33.808 16.2 40.5 16.2c7.2 0 11.7-3.6 13.5-10.8-2.7 3.6-5.85 4.95-9.45 4.05-2.054-.513-3.522-2.004-5.147-3.653C36.756 3.11 33.692 0 27 0zM13.5 16.2C6.3 16.2 1.8 19.8 0 27c2.7-3.6 5.85-4.95 9.45-4.05 2.054.514 3.522 2.004 5.147 3.653C17.244 29.29 20.308 32.4 27 32.4c7.2 0 11.7-3.6 13.5-10.8-2.7 3.6-5.85 4.95-9.45 4.05-2.054-.513-3.522-2.004-5.147-3.653C23.256 19.31 20.192 16.2 13.5 16.2z" clip-rule="evenodd"/></g><defs><clipPath id="n5_prefix__clip0"><path fill="#fff" d="M0 0h54v32.4H0z"/></clipPath></defs></svg><rect x="468.0" y="0" width="64" height="64" rx="16" fill="#333333"/><svg x="480.0" y="12.0" width="40" height="40" viewBox="0 0 180 180" preserveAspectRatio="xMidYMid meet" overflow="visible"><circle cx="90" cy="90" r="90" fill="#e0e0e0"/><circle cx="90" cy="90" r="90" fill="#e0e0e0"/><linearGradient id="n6_a" x1="93.23" x2="128.73" y1="52.776" y2="8.776" fill="#e0e0e0" gradientTransform="matrix(1 0 0 -1 0 182)" gradientUnits="userSpaceOnUse"><stop offset="0"/><stop offset="1" stop-opacity="0"/></linearGradient><path d="M149.5 157.5 69.1 54H54v72h12.1V69.4l73.9 95.5c3.3-2.3 6.5-4.7 9.5-7.4" style="fill:url(#n6_a)"/><path d="M115 54h12v72h-12z"/></svg><rect x="546.0" y="0" width="64" height="64" rx="16" fill="#333333"/><svg x="558.0" y="12.0" width="40" height="40" viewBox="0 0 24 24" preserveAspectRatio="xMidYMid meet" fill="#FFFFFF" overflow="visible"><title>Expo</title><path d="M0 20.084c.043.53.23 1.063.718 1.778.58.849 1.576 1.315 2.303.567.49-.505 5.794-9.776 8.35-13.29a.761.761 0 011.248 0c2.556 3.514 7.86 12.785 8.35 13.29.727.748 1.723.282 2.303-.567.57-.835.728-1.42.728-2.046 0-.426-8.26-15.798-9.092-17.078-.8-1.23-1.044-1.498-2.397-1.542h-1.032c-1.353.044-1.597.311-2.398 1.542C8.267 3.991.33 18.758 0 19.77Z"/></svg><rect x="624.0" y="0" width="64" height="64" rx="16" fill="#333333"/><svg x="636.0" y="12.0" width="40" height="40" viewBox="0 0 512 512" preserveAspectRatio="xMidYMid meet" fill="#FFFFE3" overflow="visible"><path d="M433.1 83.1 317.5 16.4c-37.8-21.9-84.2-21.9-122 0L79.4 83.1C42.1 105 18.7 145.5 18.7 188.8v133.9c0 43.8 23.4 83.8 60.7 105.7L195 495.6c37.8 21.9 84.2 21.9 122 0l115.6-67.2c37.8-21.9 60.7-61.9 60.7-105.7V188.8c1.1-43.3-22.4-83.8-60.2-105.7M256.2 375c-65.5 0-118.8-53.4-118.8-119s53.3-119 118.8-119 119.3 53.4 119.3 119c.1 65.6-53.2 119-119.3 119" style="fill:#fff"/></svg><rect x="702.0" y="0" width="64" height="64" rx="16" fill="#333333"/><svg x="714.0" y="12.0" width="40" height="40" viewBox="0 0 24 24" preserveAspectRatio="xMidYMid meet" fill="#FFFFFF" overflow="visible"><title>Payload CMS</title><path d="M11.9 20.4q.1.1.2 0l5.5-3.2q.1-.05.2 0l2.6 1.5q.2.15 0 .3l-8.3 5h-.2L1.8 18.1q-.2-.1-.2-.3V6.2q0-.2.2-.3l1.3-.8q.15-.1.3 0l9.8 5.7q.2.1.2.3v3.1q0 .3-.2.2L4.9 9.6q-.2-.1-.2.2V16q0 .2.2.3zM22.3 5.9q.1.1.1.2v9.8q0 .2-.2.1l-2.7-1.5q-.2-.1-.2-.3V7.9q0-.2-.2-.3l-7-4q-.1-.05-.2 0L9.5 5q-.1.05-.2 0L6.7 3.4q-.2-.15 0-.3L11.9 0h.2z"/></svg><rect x="780.0" y="0" width="64" height="64" rx="16" fill="#333333"/><svg x="792.0" y="12.0" width="40" height="40" viewBox="0 0 1155 1000" preserveAspectRatio="xMidYMid meet" fill="none" overflow="visible"><path fill="#fff" d="m577.344 0 577.346 1000H0z"/></svg><rect x="858.0" y="0" width="64" height="64" rx="16" fill="#333333"/><svg x="870.0" y="12.0" width="40" height="40" viewBox="0 0 354 354" preserveAspectRatio="xMidYMid meet" overflow="visible"><style>.n11_st1{fill-rule:evenodd;clip-rule:evenodd;fill:#0080ff}</style><g id="n11_XMLID_690_"><g id="n11_XMLID_691_"><g id="n11_XMLID_44_"><g id="n11_XMLID_48_"><path id="n11_XMLID_49_" d="M177 354v-68.6c72.7 0 129.1-72.1 101.2-148.5-10.2-28.1-32.9-50.8-61.2-61C140.5 48.1 68.4 104.3 68.4 177H0C0 61.2 112-29.2 233.4 8.8c53 16.7 95.3 58.8 111.8 111.8C383.2 242 292.8 354 177 354" style="fill:#0080ff"/></g><path id="n11_XMLID_47_" d="M177.2 285.8h-68.4v-68.5h68.4z" class="n11_st1"/><path id="n11_XMLID_46_" d="M108.8 338.1H56.4v-52.3h52.4z" class="n11_st1"/><path id="n11_XMLID_45_" d="M56.4 285.8h-44v-44h44z" class="n11_st1"/></g></g></g></svg><rect x="936.0" y="0" width="64" height="64" rx="16" fill="#333333"/><svg x="948.0" y="12.0" width="40" height="40" viewBox="0 0 512 512" preserveAspectRatio="xMidYMid meet" fill="#FFFFE3" overflow="visible"><path d="M150.2 129.7c34.9 0 47.8-21.4 47.8-47.8s-12.9-47.8-47.8-47.8-47.8 21.4-47.8 47.8 12.9 47.8 47.8 47.8m167.2 10.2v30.7h-78.5v68.3h78.5v170.7H187.7V170.7H17.1V239h95.6v170.7H0V478h512v-68.3H392.5V238.9H512v-68.3H392.5v-68.3H512V34.1h-88.7c-58.4 0-105.9 47.5-105.9 105.8" style="fill:#03f"/></svg></svg>